<svg xmlns="http://www.w3.org/2000/svg" width="109" height="83" fill="none"><path fill="#898989" d="M32.665 43.096V32.041h1.464v9.565h42.065v-9.563h1.467v11.051H32.665v.002Zm43.558-28.538c0-1.06-.023-2.02.009-2.976.018-.512-.124-.797-.63-1.017-6.652-2.922-13.29-5.875-19.945-8.79-.33-.143-.837-.14-1.169.006-6.564 2.896-13.113 5.828-19.674 8.731-.529.233-.696.54-.673 1.094.042.954.011 1.91.011 2.935h-1.54c0-1.47-.033-2.906.032-4.339.01-.235.418-.53.707-.66 5.09-2.295 10.19-4.57 15.288-6.85 1.947-.87 3.884-1.757 5.847-2.585.333-.14.83-.144 1.159 0 7.15 3.13 14.285 6.295 21.431 9.435.488.213.67.478.654 1.012-.038 1.317-.013 2.634-.013 4.002h-1.496l.002.002Z"/><path fill="#898989" d="M56.82 37.194c.215.587.15 1.126-.513 1.3-.705.185-1.12-.22-1.26-.82-.29.013-.681.152-.836.018-.556-.483-1.034-1.057-1.54-1.598-.158-.17-.292-.367-.468-.51-.556-.45-.66-1.13-.237-1.66-.707-.059-1.04-.558-1-1.498l-.014.016.19-.558-.008.017.186-.737-.005.015.184-.915-.004.013.186-.735-.005.017.184-1.1-.006.017.188-.736-.006.014.349-.788c.3.014.611.029 1.075.049-.133 2.291-.112 4.528-.806 6.715l1.048.063c-.18-.415-.375-.65-.363-.873.105-1.765.231-3.527.408-5.285.023-.23.352-.566.585-.612.507-.097 1.048-.082 1.566-.028.335.034.655.222.988.342.192-.08.511-.339.744-.276.213.058.447.45.474.713.165 1.638.285 3.282.388 4.928.017.274-.131.559-.227.929l.26.33 1.097-.263-.016-.01c.185.062.371.125.557.186l-.012-.007c.063.334.283.755.158.987-.34.632-.806 1.202-1.274 1.754-.1.12-.41.061-.364.058-.404.47-.7.817-.996 1.164l-.704-.76c-.05-.19-.099-.379-.15-.567l-.173-.591c-.045.009-.09.018-.135.025l.12.723c.062.179.125.356.189.534h-.002Zm.712-1.977.18.419.113-.037-.137-.514-.145-.566-.234-.679.263-.455-.406-.147c-.088-.538-.236-1.076-.252-1.615-.038-1.242-.013-2.483-.013-3.726-.22 1.454-.269 2.912-.413 4.36-.044.432-.36.836-.549 1.253l-.13-.087c-.03.424-.061.848-.09 1.273l-.07.358.106.028.101-.276c.164.023.33.046.502.072.146-.538-.742-1.557.69-1.505.037.197.075.391.115.588.066.236.131.475.198.711l.173.547-.002-.002Zm-2.868-.356c.034-.193.068-.384.104-.577l-.113-.03c-.056.15-.114.3-.17.452l-.15.567-.128.48c.043.01.087.023.13.034l.13-.4c.067-.175.132-.35.198-.526h-.001Zm.276-1.627c.17 0 .339 0 .507-.002-.16-1.422-.199-2.843-.507-4.265v4.267Zm-.031.31-.115-.003v.463c.028 0 .06.002.088.004l.027-.464Zm1.5 2.027c.044-.004.09-.008.135-.01l-.063-.328-.087.011.016.327h-.002Zm-1.893-2.119c-.033-.036-.062-.092-.092-.092-.05 0-.101.033-.154.053.03.032.056.088.087.09.049.003.1-.03.159-.049v-.002Z"/><path fill="#898989" d="m65.015 30.798.103 1.029H63.46l-.384-.334c-.034-.08-.069-.157-.101-.237-.072-.113-.146-.225-.218-.339l-.219-.33-.1-.233-.22-.34-1.42-2.545c-.051-.13-.1-.262-.15-.393l-.208.197c.048.124.099.247.148.371l1.443 2.535.231.32.11.22.22.337.233.323.121.235.298.391c.198.411.03.588-.385.677-.62.133-1.21.186-1.596-.444-.123-.199-.17-.446-.235-.677-.402-1.443-.816-2.885-1.176-4.34-.044-.172-.506-.661.21-.663l.253.28.089-.074c-.049-.123-.1-.244-.148-.367l-.11-.277c-.04-.087-.078-.174-.118-.259-.642.251-1.075.327-.637 1.36.825 1.946 1.253 4.06 1.837 6.105.031.105-.014.23-.03.41l-1.052.128.012.007-.557-.188.016.01c-.2-.445-.485-.872-.585-1.338a41.483 41.483 0 0 1-.555-3.363c-.092-.716-.087-1.445-.127-2.212-.443.095-.905-.356-1.546-.224-.593.123-1.252-.1-1.885-.135-.451-.025-.906-.002-1.359.009-.451.01-.9.034-1.35.05l-.36-1.72-1.264.452.011.009c0-.363-.003-.725-.003-1.088l-.006.005c.064-.063.127-.124.188-.187l-.007.01.186-.375-.011.013.193-.191-.013.012.193-.191-.009.013.188-.374-.01.011c.064-.063.129-.126.192-.191l-.01.01.189-.19-.008.008c.475.109.87.083.904-.543l.004-.003.36-.18-.003.003c.062-.062.125-.123.186-.186l-.007.007c.206.094.41.19.615.283l.244.298c.034.294.155.614.08.877-.084.29-.347.529-.53.79l-.14.152-.18.178-.18.168-.573.338c.305.395.565.734.868 1.13l-.154-1.285.192-.168.18-.18c.058-.064.116-.125.172-.188.167-.143.333-.285.51-.433l.41.67.238.3.179.192c.344.214-.037.994.703.902l.143.236.103-.063-.15-.253c.061-.339.085-.692.193-1.015.1-.296.29-.562.442-.84.065-.021.13-.045.197-.066.06.12.117.243.176.364l.203.343.13.233.16.254.108-.063-.173-.289-.128-.232-.168-.358c-.06-.122-.119-.245-.177-.368l1.004-1.903-.013-.011.927 2.533c.04-.415.015-.839-.106-1.234-.19-.622.018-.84.633-.749l-.014-.012.193.193-.015-.013.194.193-.013-.012c.063.063.126.128.191.19l-.009-.008.195 2.713-.045.042.036-.052c.258.093.6.113.758.294.68.78 1.304 1.607 1.95 2.417l-.005-.005c.122.123.245.244.368.366l-.007-.007.362.725c.063 0 .125.002.188.004l-.01-.013c.122.186.244.372.369.556l-.01-.014c.122.186.246.37.369.555l-.01-.012.194.191-.013-.013.374.37-.016-.016.009.01Zm-6.483-6.12c.016-.081.03-.16.047-.242l-.038.25-.036.02.027-.028Zm.52 2.234c-.046-.069-.084-.154-.1-.15-.077.02-.148.063-.222.1.03.04.06.12.085.118.076-.005.15-.041.235-.068h.002ZM9.486 19.824c-.487-.31-.996-.591-1.45-.943-.179-.14-.372-.49-.309-.645.072-.18.43-.368.642-.346.746.074 1.476.258 2.22.36 1.337.181 2.674.369 4.018.477.438.035.893-.209 1.348-.258.496-.054 1.001-.04 1.503-.034 2.186.016 4.424.346 6.55-.004 3.989-.656 8.001-1.259 11.897-2.46 2.19-.677 4.509-.939 6.77-1.386l-.845.811c-.054.053-.11.105-.166.157-1.073.3-2.149.834-3.222.829-.966-.006-1.718.283-2.512.66-.117.067-.234.132-.352.198l-.216.12c-.846.651-1.743.167-2.622.12a.794.794 0 0 0-.02-.014l.03.004 1.055.59c-2.74.422-5.28 1.544-8.026.777l-.345-.102-.037.106.267.13c.72.168 1.438.334 2.156.503.638.15 1.275.303 1.914.455l-.038.377c-2.528.258-5.059.76-7.581.718-3.497-.06-6.987-.527-10.48-.82-.18-.012-.362-.02-.543-.032l.018.008-.92-.184.018.007c-.247-.061-.493-.125-.74-.186l.016.01.002-.003Zm6.48-.721-.14-.145-.055.054.207.076c.256.14.496.328.769.406 3.275.944 6.567.826 9.864.172-.853.025-1.705.142-2.559.19-2.731.154-5.432-.068-8.088-.753h.002Zm21.032-3.149c-.025.016-.068.04-.067.045.017.047.042.092.066.137.023-.014.068-.036.066-.041-.016-.049-.043-.096-.065-.143v.002Zm64.275 3.979c.431.566-.099.806-.424.934-1.05.412-2.133.749-3.212 1.083-.397.123-.82.153-1.234.227-.267.02-.536.034-.8.061-4.86.522-9.719.937-14.565-.1-.874-.188-1.732-.437-2.598-.66l.045-.221c.505-.07 1.008-.14 1.263-.177l-6.703-1.167c.768-.632 1.5-.81 2.39-.574 1.005.267 2.063.341 3.1.48.96.128 1.922.229 2.883.343-.068.036-.144.065-.203.113-.013.01.03.087.047.134.084-.054.17-.107.256-.16.673-.075 1.376-.311 2.013-.192 2.38.439 4.77.59 7.15.24 1.152-.17 2.254-.675 3.378-1.027l-.012.011.375-.19-.016.01.377-.19-.016.011c.122-.063.245-.124.368-.188 2.259-.28 4.516-.568 6.777-.828.238-.027.494.109.741.17-.094.263-.113.608-.296.77-.369.332-.828.565-1.248.84-2.35.44-4.688.965-7.053 1.3-3.869.547-7.753.733-11.629-.023-.4-.078-.81-.108-1.214-.16l-.02.228c1.41.183 2.818.45 4.235.529 3.994.224 7.966-.07 11.899-.801 1.32-.245 2.629-.549 3.944-.825l.002-.001Zm-7.68 46.913h-2.258c-.069-.427-.112-.788-.19-1.144-.285-1.319-1.064-1.896-2.43-1.627-.317.063-.658.009-.99.009-1.509 0-2.153.55-2.346 2.059-.029.222.112.465.166.665-.852.053-1.747.114-2.643.163-1.007.054-1.752-.388-2.189-1.281-.341-.697-.583-1.442-.915-2.144-.269-.57-.599-1.12-1.292-1.046v4.344H76.77c.104-3.146.092-6.268-.006-9.562 1.096.088 2.434.092 3.73.332 1.319.245 1.995 1.075 2.026 2.08.033 1.088-.603 1.945-1.804 2.421-.247.098-.5.177-.61.215.705.978 1.42 1.963 2.133 2.952.193.267.362.554.573.805.72.858 1.253.813 1.745-.206 1.263-2.613 2.49-5.242 3.733-7.863l.442-.919c1.745 3.29 2.918 6.696 4.863 9.75l-.002-.003Zm-15.197-5.021c1.54.123 2.42-.563 2.487-1.913.068-1.387-.663-1.99-2.487-2.006v3.919Zm11.71 1.573c-.617-1.342-1.205-2.625-1.856-4.045l-1.754 4.045h3.61Z"/><path fill="#898989" d="M32.741 17.477c.879.049 1.776.53 2.622-.12l.135.169-.954.741c2.082.758 3.744-.137 5.415-.98.214.239.407.648.647.677.493.062 1.012-.08 1.521-.137l-.108.364h.644l-.91.547c-.035-.868-.557.182-.721-.182-1.5-.837-2.468-.71-3.363.7l3.017-.348-.937 1.034.12.252c.514.05 1.026.103 1.54.154-.188.074-.37.175-.566.218-1.57.36-3.142.71-4.715 1.063 2.362.725 4.388-.092 6.614-1.27h-1.345c0-.125-.002-.248-.004-.372h2.11l.874-1.898-1.723.11.184-.552c.965.281 1.896.225 2.813-.244l-.233-.713c.056-.052.112-.104.168-.159.628 1.31 1.26 2.619 1.884 3.932.151.32.283.651.424.976l-.73-.355-.701-1.671c-.496.428-.8.687-1.102.947-.064-.12-.103-.325-.194-.35-1.252-.368-2.951.776-3.116 2.084 1.058.336 1.884-.296 2.776-.657-.361.361-.722.724-1.085 1.085-.08-.047-.159-.096-.24-.143l-.041.089.285.048-.146 1.316.247.173c.368-.289.745-.567 1.1-.87.219-.186.4-.411.601-.619l-.689 2.218c1.167.216 1.73-.148 2.398-1.41-.84-.15-.834-.15-.94-1.05-.013-.104-.154-.193-.236-.29.054-.166.108-.334.178-.545h-1.436l.364-.906c.19.202.356.543.572.578.459.072.942-.015 1.417-.036-.363.534-.742 1.066-.363 1.945.615-.27 1.2-.523 1.797-.785l-.723-.801 1.08.236-.229 1.45c.478-.09.783-.145 1.139-.212-.267.758-.215 1.283.72 1.232 0 .363.003.726.003 1.088-.243.12-.487.238-.729.36l.278-.943-1.005-.858c-.294-.322-.588-.64-.954-1.04-.547.895-1.503 1.552-1.518 2.873.32-.107.543-.13.7-.244.547-.395 1.07-.823 1.603-1.238-.175.397-.4.78-.511 1.193-.12.433-.283.978.509.974l-1.88 1.76-.157-.183c.5-.797 1-1.593 1.615-2.576l-2.276.835a4.838 4.838 0 0 0-.092-.1l.132-1.123-1.139.677-.728-1.226-.715.32.199-.352.117-.085c-.06.007-.121.015-.18.024-.895.166-.51-.737-.858-1.027l.251-.716H41.57l.233-1.045c.03-.047.063-.092.093-.139h-.222c-1.1.435-2.156.973-3.419.866-.565-.049-1.155.202-1.732.318-.413-.19-.826-.378-1.24-.567-.84-.222-1.712-.713-2.515-.615-2.607.312-5.174.969-7.783 1.25-3.905.42-7.83.52-11.73-.17v-.238c1.283.107 2.565.253 3.85.31 4.699.206 9.352-.214 13.967-1.082.614-.115 1.218-.274 1.828-.413v-.269c-.73-.186-1.487-.592-2.19-.516-2.676.283-5.327.868-8.006 1.066-3.719.276-7.425-.079-11.079-.862l.006-.218c3.493.294 6.983.761 10.48.82 2.522.044 5.053-.458 7.581-.718l.038-.377c-.639-.151-1.276-.305-1.915-.454-.718-.17-1.438-.336-2.156-.504a3.97 3.97 0 0 0 .116-.133c2.744.767 5.287-.356 8.025-.778l-1.055-.59-.01.011.006-.01Zm5.767 2.163-1.388-.651-2.02.585-.064-.217c.442-.162.884-.325 1.272-.465-2.477-.834-4.851-.199-7.237.597 1.11.137 2.22.272 3.356.411l-.413.199c0 .079.002.158.004.236.846.032 1.701.159 2.537.076 1.21-.121 2.407-.392 3.608-.6l-4.597 1.21c.245.079.528.214.826.258 1.622.243 3.13-.22 4.636-.747.552-.193.68-.49.478-.955l-1 .063h.002Zm7.688-.232-.628-1.772-1.563 1.737c.067.098.134.195.2.294.625-.08 1.248-.162 1.993-.26h-.002Zm47.865-.14c-1.125.354-2.227.86-3.378 1.027-2.382.35-4.773.199-7.15-.24-.638-.117-1.341.12-2.014.192l-.1-.085c-.961-.114-1.923-.215-2.883-.343-1.037-.139-2.094-.211-3.1-.48-.889-.236-1.62-.058-2.39.574l6.703 1.167-1.263.177-.045.222c.866.22 1.725.47 2.598.659 4.846 1.037 9.705.622 14.564.1.267-.028.534-.041.801-.06a2.61 2.61 0 0 0-.005.167c-.612.123-1.218.301-1.835.357-5.32.48-10.624.637-15.872-.732-.562-.146-1.294.357-1.946.559-1.133-.568-2.237-.399-3.372.085.136.115.224.193.314.27l-3.26-1.266c.595.15 1.183.375 1.786.431.8.076 1.611.018 2.418.018l-.006-.198-1.14-.435c1.187.12 2.373.274 3.562.34.335.019.687-.216 1.03-.335l-.101-.177-8.076-2.046c-.049.047-.097.092-.144.14l1.037 1.19c-.48.12-.96.238-1.442.355-.965-.698-1.965-.535-2.96-.086.359.853 2.073 1.413 3.332 1.02l-.382-.944 1.095.738c-.137.182-.276.362-.459.602-.151.116-.391.296-.631.477-.254-.136-.509-.271-.906-.48.19.624.318 1.043.444 1.463-.032.03-.061.065-.09.1h-1.736c.054.645.096 1.12.132 1.547-.697-.041-1.252-.076-1.808-.108l-.734-.913 2.13.758c.174-1.14-.46-1.656-1.05-2.198.554.19 1.101.406 1.666.556.292.078.617.032.929.043-.054-.335-.047-.698-.18-.996-.094-.207-.369-.435-.587-.465-.826-.114-1.663-.15-2.714-.233.341.437.53.68.722.924l-1.92.548c.06.107.179.322.3.534l-1.819-.552h1.213l-.4-1.158c.035-.036.073-.07.11-.107.115.136.203.32.35.396.367.193.76.337 1.143.5.042-.374.11-.746.116-1.12.001-.163-.121-.33-.188-.494l1.857.464c-.282-.644-.437-1.003-.594-1.362h1.386c-.05-1.13-.428-1.547-1.386-1.615.123-.424.357-.853.341-1.274-.023-.599.276-.787.749-.9.287.14.574.4.86.399.617 0 1.235-.136 1.852-.217 1.405 1.055 4.738 1.64 6.605 1.171-.633-.325-1.284-.659-1.936-.99.666.205 1.32.458 2 .606 1.004.22 2.018.332 2.89-.426.12.063.242.126.363.191l-1.713.835c2.626.89 5.245 1.208 7.923.372a.243.243 0 0 1 .108.105l-2.09 1.023c1.161.31 2.278.438 3.395.536 2.389.206 4.698-.23 6.975-.902h.005Zm-25.968-1.607-1.534-.475-.308 1.327c.413.075.767.225 1.095.182.437-.056 1.1.117 1.099-.688.781.646 2.068.628 2.869-.175-.821-.265-1.538-.572-2.285-.696-.274-.047-.62.337-.934.525h-.002Zm15.315 1.85c-1.83-.345-3.704-.546-5.478-1.085-1.256-.382-2.304.117-3.453.24 2.939.953 5.914 1.306 8.93.844Zm-13.038-.603c1.03.53 2.13.694 3.268.191.155-.069.205-.377.305-.576-.798-.126-1.596-.35-2.39-.335-.39.007-.772.454-1.183.72Zm-.541 1.37c-.226-1.556-.462-1.673-2.573-1.267.314 1.106 1.097 1.49 2.573 1.266Z"/><path fill="#898989" d="m68.892 23.691-.444-1.463.906.48-.01-.013.377.188-.015-.011.193.193-.014-.015.373.376-.012-.013.193.193-.015-.01.377.189-.014-.011c.065.065.128.13.193.193l-.014-.01.377.189-.015-.011.191.193-.012-.01.375.187-.013-.011c.064.065.129.128.192.193l-.013-.01c.245.122.49.245.738.367l-.014-.01.19.192-.014-.01c.968.483 1.935.967 2.9 1.452l-.016-.009 3.422 1.467c.174.926-.483 1.048-1.093.969-.671-.088-1.315-.38-1.97-.585l-.204.018c.072.1.142.199.215.298-.16.1-.39.321-.464.278-1.496-.873-3.143-.502-4.73-.592-.126-.007-.254.253-.398.278-.527.092-1.06.137-1.593.2l-.392-.168.01.008-.19-.19.009.01-.19-.19.01.009-.19-.19.009.01-.19-.19.01.009-.731-.73.01.008-.19-.19.008.012c-.063-.064-.128-.127-.19-.192l.01.011-.191-.191.009.009-.191-.19.01.011c-.063-.063-.128-.126-.19-.191l.01.01-.191-.19.012.012-.193-.193.013.013-.193-.193.012.01c-.122-.245-.247-.488-.37-.734l.011.013 1.808.108-.131-1.548H68.8l.174.184.18.184.179.179.187.08a8.981 8.981 0 0 1-.08-.198 13.068 13.068 0 0 1-.165-.167l-.197-.19-.188-.171.002.007Zm1.018.973-.186-.089c.024.065.047.13.072.193l.192.182.326.103-.21-.222a18.46 18.46 0 0 1-.192-.168h-.002Zm5.676 3.705.224.046-.119-.155-.36-.188-1.401-.758c-.08-.041-.159-.081-.238-.123l-.675-.406-.224-.139-.382-.232-.07.155c.119.056.238.11.358.164.076.045.154.088.23.134l.676.4c.074.047.15.094.224.143.465.258.933.514 1.398.77l.354.188.005.002ZM19.26 62.364v4.481h-1.724c.136-3.15.094-6.291.03-9.465h1.703v4.228h5.38v-4.235h1.748a96.946 96.946 0 0 0 .006 9.47h-1.855c.498-1.455.146-2.958.283-4.48H19.26Zm89.565 19.81h-2.632c-.114-.326-.143-.694-.338-.92-1.095-1.271-2.228-2.51-3.341-3.75-.772.449-.994 3.453-.365 4.64h-1.864c.071-3.15.139-6.293-.052-9.456h1.765v4.529c1.416-1.577 3.152-2.642 4.146-4.538h1.685c-1.42 1.212-2.856 2.443-4.404 3.765 1.853 1.967 3.645 3.867 5.4 5.733v-.004Zm-6.853-5.152c-.021-.024-.037-.043-.055-.061-.02.037-.046.072-.055.111-.003.015.033.038.049.058l.061-.106v-.002ZM57.246 66.895c.494-.936.478-8.68-.08-9.693 1.83.166 3.542.184 5.193.506 1.952.378 3.033 1.692 3.24 3.486.258 2.231-.537 4.111-2.345 4.902-1.066.465-2.29.61-3.46.78-.791.115-1.61.02-2.55.02h.002Zm1.894-.552c1.741.063 3.367-.054 4.25-1.694.918-1.709.977-3.555-.066-5.231-.936-1.505-2.522-1.644-4.182-1.579v8.504h-.002ZM36.53 22.527c.579-.115 1.169-.366 1.732-.317 1.263.108 2.318-.432 3.419-.866l.126.14-.233 1.043.013-.01c-.124.063-.25.124-.375.187l.012-.009c-.122.125-.245.249-.37.373l.011-.009-.552.369.01-.008-.373.186.01-.007c-.19.076-.388.135-.565.233-2.351 1.293-4.7 2.59-7.05 3.888l-.332.215.015-.015c-.594-.012-1.2.045-1.777-.058-.527-.093-.948-.39-.356-.97l.312-.081 6.887-3.185.114-.14-.204.048c-2.264 1.009-4.529 2.017-6.793 3.028l-.431.162c-1.66.323-3.322.758-5.218-.078l.976-.525-.017.01c.302-.01.603-.019.904-.03 2.844-.492 5.541-1.423 8.13-2.682l-.016.009c.486-.244.973-.488 1.458-.733l-.016.009.563-.19-.014.013Zm1.979.168c.083-.016.166-.032.249-.05a1.023 1.023 0 0 1-.042-.078l-.196.137c-.06.061-.12.12-.179.182l-.882.327.128.216.745-.554c.06-.06.12-.12.179-.182l-.002.002Zm50.732 59.47h-.953c.052-1.577.19-3.154.131-4.724-.059-1.575.397-3.22-.424-4.727 1.126-.22 2.012.124 2.859 1.091 1.83 2.093 3.816 4.051 5.692 6.018v-7.145h1.003c-.453 3.186-.086 6.414-.444 9.765l-8.144-8.457c.146 2.89-.094 5.53.28 8.177v.002ZM34.596 74.26c-.245 2.984-.038 7.093.415 7.889H33.85c.049-1.57.17-3.147.126-4.72-.045-1.58.361-3.218-.402-4.719 1.148-.238 2.026.172 2.867 1.13 1.82 2.071 3.787 4.018 5.891 6.223-.085-2.611.09-4.985-.236-7.367h.965c-.323 3.165-.114 6.37-.16 9.754-1.226-.742-1.926-1.82-2.81-2.692-.94-.926-1.819-1.916-2.75-2.853-.898-.902-1.833-1.772-2.742-2.647l-.002.002Zm35.18 7.932c.18-3.2.18-6.342-.005-9.583.973.063 2.115.067 3.233.228 1.354.194 2.2.918 2.286 1.83.118 1.222-.65 1.834-1.811 2.296.523.139.916.217 1.29.348.907.321 1.557.884 1.662 1.911.11 1.06-.376 1.844-1.28 2.265a7.788 7.788 0 0 1-2.388.678c-1.034.114-2.092.027-2.985.027h-.002Zm1.639-.532c1.246.014 2.412.086 3.146-1.056.412-.64.336-1.918-.16-2.47-.828-.918-1.904-.82-2.986-.704v4.23Zm.014-8.435v3.565c1.611.016 2.247-.502 2.274-1.804.025-1.258-.553-1.734-2.274-1.761ZM13.262 22.426c3.9.69 7.825.59 11.73.17 2.609-.282 5.176-.939 7.784-1.25.802-.096 1.674.393 2.515.615l-.065.043c-.552.12-1.108.234-1.657.366-2.176.523-4.332 1.148-6.528 1.554-1.93.357-3.906.47-5.862.693-2.41.072-4.795-.067-7.085-.912a3.34 3.34 0 0 1-.994-.575c-.314-.269-.327-.572.166-.706l-.004.002Zm52.476-2.071.594 1.362c-.8-.198-1.328-.332-1.857-.464l.013.013-.07-.39-.482.39.016-.01c-.927.181-1.853.364-2.766.544.05.274.127.682.222 1.187-.588-.117-1.012-.204-1.436-.288l.009.009-.191-.192.012.013-.193-.193.015.013-.193-.194.014.013c-.12-.305-.242-.608-.363-.913l-.009.016.193-1.066c.8.854 1.805.66 2.78.516.977-.144 1.617-.891 1.693-1.925.035-.476.011-.958.042-1.434.106-1.58.936-2.534 2.51-2.812 1.838-.323 3.635-.005 5.414.446.769.195 1.53.417 2.286.655.271.085.514.253.769.384l-.179.368.013-.01c-1.472.182-2.952.494-4.368-.2l1.135-.497c.104-.092.21-.182.315-.274l-.092-.092c-.113.085-.225.17-.339.254-.84.242-1.656.307-2.513-.032-.502-.199-1.137-.296-1.366.489l.01-.013c-.064.063-.127.128-.192.191l.012-.012c-.065.065-.13.128-.193.193l.013-.013-.193.193.009-.01c-.473.113-.772.3-.749.9.016.418-.218.848-.341 1.274l.01-.01-.189.19.01-.009-.19.19.009-.01-.592 1.226c-.067.093-.133.189-.202.283l.097.09.255-.226.624-.281-.014-.01c.063.064.128.127.191.192l-.01-.009-.003-.005Z"/><path fill="#898989" d="M52.576 19.285c.124-1.067.227-2.135.38-3.197.405-2.793 3-4.224 5.675-3.198.451.174 1.002.08 1.503.14 1.164.138 1.566.93 1.002 1.946-.847-.736-1.879-.512-2.54.673-.336.606-.44 1.343-.663 2.066-.072-.03-.238-.103-.45-.195-.016.329-.028.62-.043.908l.192-.127 1.268 1.691.168 1.274.009-.016c-.309.287-.578.698-1.093.362l.012.011c-.384-.312.069-1.064-.633-1.209l-.152-.151-.193-.895.166-.19c.018-.072.038-.142.058-.214a9.29 9.29 0 0 0-.177.104c-.065.056-.13.112-.195.166l-.469-.346-.215-.332c.035-.269.067-.54.101-.808.231-.562 1.152-1.004.3-1.749l-.211-.151c-.377-.276-.796-.511-1.122-.838-.462-.463-.719-.258-.93.2-.108.235-.16.497-.236.735.348.426 1.304.372.967 1.288-.054.07-.108.141-.164.21l-.247.254c-.172.32-.341.639-.51.958l-.347.39-1.207.243-.004-.003Zm7.914-5.566c.093.02.19.038.283.057-.06-.06-.12-.119-.177-.178-.19-.082-.372-.202-.568-.239a63.68 63.68 0 0 0-2.335-.38c-.873-.127-1.692-.03-2.5.722l1.185-.165c.494.845.61.848 1.194-.03l.666.617 2.25-.406.002.002Zm-5.464.09.027-.036-.047-.006.02.04v.002Zm2.205 3.2a1.22 1.22 0 0 1-.047-.055l-.052.052c.023.02.049.038.072.058l.027-.053v-.001Zm-7.358 8.576c.244-.119.487-.238.729-.359l-.01-.009-.176.904-.003.004-2.52 3.778-.55.73.008-.012c-.192.217-.413.414-.569.654-.357.553-.795.678-1.373.357-.563-.314-1.032-.657-.422-1.59-1.972.891-3.464-.124-5.041-.677l2.176-1.445-.01.007c.185-.122.367-.245.551-.366l-.009.006c.303-.183.608-.363.911-.545l-.007.005.547-.55-.008.009.19-.19-.009.008.373-.184-.01.009c.063-.064.126-.129.19-.192l-.01.011.191-.191-.01.01.19-.19-.01.012 1.138-.676c-.06.5-.095.811-.131 1.122l-.19.173c-.061.06-.124.117-.186.177l-.18.18-.18.18-.184.185-.195.178c-.06.062-.121.121-.18.183l-.163.162-.289.272c-.063.056-.128.112-.191.17l-.188.17-.204.23.334-.1.184-.157c.061-.058.123-.116.182-.175l.287-.276c.062-.058.121-.118.183-.175l.18-.181c.06-.061.12-.12.179-.182l.182-.182.18-.18.18-.181.178-.184.17-.186c.652-.238 1.302-.478 2.276-.836l-1.615 2.577-.416.455-.809.846-.092.265.278-.088.778-.843.416-.451 1.88-1.761-.005.004.368-.184-.007.005.547-.547-.004.004v.003Zm4.987 49.796c-.882-1.66-2.224-2.4-3.99-2.277-1.63.113-2.743 1.025-3.315 2.515-.688 1.79-.473 3.504.844 4.947 1.184 1.298 2.69 1.426 4.312.985.756-.205 1.204-.555 1.061-1.436-.108-.676-.112-1.37-.162-2.064h1.855c-.064.475-.215.956-.17 1.418.074.758-.278 1.24-.796 1.696-1.701 1.501-4.534 1.65-6.647.332-1.864-1.162-2.688-3.253-2.118-5.373.653-2.43 3.392-4.038 6.201-3.614a7.29 7.29 0 0 1 1.561.41c1.402.544 1.527.783 1.366 2.46h-.002Zm15.57-53.763 3.26 1.267-.016-.011.19.195-.014-.011c1.384.535 2.73 1.232 4.163 1.573 2.557.608 5.166 1.001 7.751 1.485.211.761-.08 1.182-.916 1.082-1.38-.162-2.748-.438-4.121-.665l-6.898-2.08c2.176 1.145 4.413 1.93 6.804 2.264.114.269.386.611.303.788-.106.226-.484.383-.772.444-.28.06-.594-.04-.892-.07-1.145-.406-2.293-.81-3.439-1.216l.017.009c-.967-.484-1.934-.967-2.9-1.453l.015.011-.192-.193.015.01-.738-.367.012.01c-.063-.064-.128-.128-.19-.193l.012.011a32.825 32.825 0 0 0-.376-.187l.013.01-.191-.193.014.011-.377-.19.015.012c-.065-.065-.128-.13-.193-.193l.014.01-.377-.189.014.01c-.065-.064-.128-.13-.193-.192l.013.012-.374-.375.015.015-.193-.194.014.011-.377-.187.011.012c.24-.18.48-.36.632-.476.182-.24.319-.422.458-.603l-.013-.01-.003-.004Zm1.596 1.835.192.041-.148-.086a34.757 34.757 0 0 0-.34-.202l-.209-.152a24.443 24.443 0 0 0-.348-.263l-.083.126c.13.058.26.117.391.173l.197.166.347.197h.001Zm.64.256-.216-.05.118.15 1.014.578.108-.218-1.023-.462v.002ZM70.5 22.37c-.018.043-.058.105-.045.12.03.035.086.048.133.072.018-.044.062-.105.047-.125-.027-.036-.086-.045-.135-.067Zm-58.867-1.95c3.653.783 7.36 1.138 11.078.862 2.68-.198 5.328-.783 8.006-1.066.704-.074 1.458.332 2.19.516V21c-.608.139-1.214.297-1.827.413-4.616.868-9.27 1.288-13.968 1.082-1.286-.055-2.567-.203-3.85-.31-1.303-.415-2.614-.805-3.9-1.266-.252-.09-.401-.457-.598-.695l.727-.404-.016-.01.74.187-.018-.008.92.184-.018-.007.535.25-.001.003Zm50.499 2.816 1.818.552-.016-.01.193.193-.012-.011.377.188-.013-.011.191.193-.01-.011.734.913-.011-.013c-.005.237-.01.473-.018.707l-1.066.033-.203.265c.462-.054.922-.108 1.384-.164l.273-.108-.013-.011.193.193-.012-.013.193.193-.013-.012.191.191-.01-.01c.063.062.128.125.19.19l-.01-.01.191.19-.009-.01.191.191-.01-.01.19.19-.008-.01.191.19-.01-.01.73.731-.01-.009.19.19-.009-.01.19.19-.01-.009.19.19-.009-.01.19.19-.01-.007c.05.063.098.126.145.19-.09.863-.83 1.105-1.992.67 0 .312.058.899-.009.913-.572.125-1.166.146-1.754.199l.017.016-.374-.37.013.013-.195-.191.01.012c-.122-.186-.247-.37-.37-.556l.011.015c-.122-.186-.247-.372-.37-.556l.011.013c-.01-.058-.023-.114-.034-.172l-.516-.557.007.007c-.122-.123-.245-.244-.368-.366l.006.005c-.395-.743-.821-1.474-1.171-2.239-.136-.296-.098-.673-.145-1.07-1.071.023-1.548-.622-.968-1.75.35.206.696.408.927.545l.462-.53-.015-.013c.065.065.128.13.193.193l-.012-.013-.007-.002Zm.203 2.328-.164-.13.03.243c.057.064.113.127.167.192l.18.182c.06.06.12.12.177.18.065.06.132.12.197.177.077.049.155.096.23.145l.566.198.06-.171c-.156-.065-.311-.132-.468-.197l-.228-.124c-.066-.055-.133-.107-.202-.161l-.186-.175-.18-.18c-.061-.06-.123-.12-.182-.18h.003Zm1.337.112-.196-.062.097.155.318.264.088-.117c-.103-.082-.206-.16-.308-.239l.001-.001Zm1.25 1.638c-.163-.197-.328-.393-.492-.592-.065.05-.132.101-.196.152.151.21.3.42.452.63l.715.91L66.41 29.6c.075-.069.153-.135.229-.204L65.63 28.23c-.234-.305-.47-.61-.707-.915Zm-7.388 52.39c.606.985 1.305 1.797 2.452 1.98.431.07.895.05 1.326-.026.719-.128 1.162-.605 1.31-1.316.152-.725-.111-1.333-.73-1.7-1.004-.594-2.075-1.075-3.068-1.686-1.12-.691-1.542-1.78-.97-2.84.322-.6.968-1.187 1.602-1.415.718-.258 1.598-.222 2.38-.11 1.465.213 1.661.574 1.468 2.2-.65-1.222-1.61-1.797-2.948-1.66-.69.07-1.214.397-1.39 1.084-.17.678.192 1.18.755 1.489.839.46 1.723.837 2.57 1.286.851.451 1.517 1.076 1.66 2.1.238 1.7-.782 3.024-2.592 3.23a6.935 6.935 0 0 1-2.14-.114c-1.559-.317-1.827-.754-1.685-2.5v-.002ZM30.844 57.91v3.75c1.1-.027 2.25.243 3.315-.507v1.652c-1-.774-2.15-.452-3.307-.552v4.26l4.897-.75c-.195 1.048-.24 1.084-1.57 1.084h-4.944c.024-1.566.094-3.14.06-4.713-.034-1.586.231-3.197-.23-4.761h4.443c.884 0 1.476.503 1.775 1.51-1.383-1.036-2.863-1.111-4.436-.976l-.004.003Zm37.148-.534c1.537 0 3.011.058 4.478-.02 1.043-.055 1.772.121 1.741 1.455-1.29-.93-2.755-1.054-4.323-.897v3.883l3.331-.437v1.216l-3.329-.425v4.37l4.888-.762c-.188.728-.714 1.092-1.579 1.092h-5.232c.478-.749.498-8.596.025-9.475ZM.822 79.754c.203.28.385.578.616.834.843.93 1.855 1.4 3.134 1.088.704-.172 1.171-.587 1.314-1.312.14-.72-.076-1.344-.7-1.716-.924-.548-1.91-.996-2.844-1.528-.815-.464-1.429-1.077-1.398-2.129.03-1.079.525-1.83 1.512-2.23 1.202-.49 2.409-.388 3.592.085.92.366.423 1.22.616 1.869-.666-.973-1.476-1.638-2.707-1.602-.776.021-1.452.223-1.685 1.053-.227.814.263 1.318.91 1.664.685.368 1.41.657 2.105 1.01 1.613.823 2.248 1.95 1.92 3.36-.314 1.346-1.514 2.153-3.23 2.169h-.27C1.528 82.35 1.05 81.947.82 79.758v-.004Zm48.107-22.377h4.31c.928 0 1.494.383 1.699 1.148l-4.285-.88v4.126l3.325-.388v1.192c-1.065-.137-2.162-.277-3.336-.429v4.188c1.726.04 3.408.03 5.017-.922-.209 1.012-.55 1.544-1.661 1.47-1.732-.117-3.477-.03-5.054-.03.229-3.169.252-6.315-.013-9.473l-.002-.002ZM76.75 22.53c.652-.202 1.383-.706 1.944-.56 5.249 1.37 10.55 1.211 15.873.733.617-.056 1.223-.234 1.835-.357.119-.004.249-.038.355-.002.25.083.487.2.73.303-.167.253-.288.66-.513.731-1.33.413-2.673.777-4.03 1.092-.514.119-1.067.057-1.603.079-1.435-.074-2.871-.115-4.302-.23-3.195-.252-6.378-.58-9.434-1.641-.275-.096-.578-.108-.868-.16l.012.012ZM10.075 82.167H8.567l4.675-9.715c1.593 3.315 3.141 6.535 4.659 9.697h-2.196c.406-.986-.386-1.664-.71-2.443-.093-.226-.766-.257-1.18-.29-.567-.048-1.14-.032-1.708-.006-.498.021-1.22-.09-1.44.18-.429.532-.599 1.285-.824 1.963-.047.143.132.361.234.614h-.001Zm.894-3.454h3.616l-1.85-4.049-1.766 4.05Zm73.421 3.398c.39-.94-.373-1.63-.707-2.395-.101-.23-.765-.268-1.178-.3-.596-.05-1.2-.032-1.797-.008-.468.018-1.159-.083-1.352.171-.416.55-.604 1.287-.824 1.967-.053.16.133.399.209.597h-1.467c1.514-3.154 3.051-6.362 4.652-9.696 1.584 3.3 3.123 6.5 4.64 9.664h-2.175Zm-2.971-7.456c-.628 1.45-1.182 2.721-1.758 4.05h3.607l-1.85-4.05ZM46.71 57.392l.383 1.136-4.329-.884v3.937c1.115.282 2.553.092 3.286-.487v1.568c-.487-.11-1.018-.28-1.56-.34-.56-.06-1.13-.012-1.822-.012.15 1.489-.216 2.995.275 4.511h-2.075c.49-.788.489-8.565-.013-9.426h5.855v-.003ZM18.231 72.678h2.313c.016.328-.056.686.065.96.935 2.132 1.904 4.249 2.943 6.546.397-.88.74-1.611 1.055-2.353.576-1.348 1.155-2.696 1.69-4.06.116-.301.052-.673.075-1.077h1.366l-4.666 9.696c-.168-.306-.309-.535-.422-.775-1.15-2.434-2.284-4.876-3.448-7.304-.266-.552-.625-1.06-.97-1.633h-.001Z"/><path fill="#898989" d="m73.69 22.884-.314-.27c1.135-.484 2.24-.653 3.372-.085l-.013-.013c.405.183.798.4 1.217.545 4.344 1.507 8.895 1.498 13.404 1.788.6.554.016.89-.321.973-.91.222-1.853.373-2.788.395-.826.018-1.658-.177-2.486-.278-.137-.049-.27-.12-.41-.14-3.751-.524-7.484-1.114-10.983-2.678-.151-.069-.344-.043-.518-.062l.015.011-.191-.195.016.011v-.002ZM10.658 66.82v-9.045l-3.226.892c.225-.86.802-1.289 1.73-1.289h4.773c.934 0 1.532.432 1.793 1.296a2810.17 2810.17 0 0 0-3.228-.928c-.364 1.603-.205 8.47.197 9.074h-2.039Zm24.63-44.858 1.24.566.015-.012-.563.189.016-.009-1.458.732.016-.008c-.176.023-.36.023-.526.075-2.54.789-5.074 1.583-7.61 2.377-.299.086-.598.17-.898.258l.017-.01c-1.577-.003-3.158.033-4.733-.028-.789-.031-1.599-.184-2.306-1.139 1.03-.041 1.864-.076 2.697-.11 1.485-.11 2.985-.133 4.455-.346 3.28-.471 6.508-1.182 9.576-2.49l.065-.044-.002-.001Zm12.608-.52c-.141-.327-.271-.657-.425-.976-.624-1.312-1.255-2.622-1.883-3.932-.534-.344-1.077-.673-1.597-1.037-.397-.278-.761-.601-1.14-.902.508.009 1.017-.004 1.524.029 1.884.12 2.961 1.064 3.318 2.924.107.556.14 1.126.222 1.69.137.932.684 1.471 1.615 1.475.776.002 1.552-.112 2.326-.173-.052.662-.502 1.322-.002 1.986l.007-.009-.19.192.012-.011-.192.191.01-.01c-.064.124-.125.248-.188.373l.009-.013-.193.191.012-.012c-.064.063-.128.128-.193.19l.011-.012-.186.376.008-.011c-.064.063-.127.124-.188.187l.005-.005c-.934.05-.988-.473-.72-1.232-.355.066-.658.122-1.138.213l.229-1.451c-.298-.065-.69-.152-1.08-.236l.006.007v-.002Zm2.385-.278.162.242c.148-.121.298-.24.437-.368.016-.015-.026-.092-.053-.179l-.546.305Zm44.862 36.198h1.669c-.191 2.95-.052 5.91-.081 8.946 1.573.117 3.062.05 4.413-.841-.119 1.189-.325 1.384-1.46 1.384h-4.527c.046-3.161.062-6.304-.012-9.489h-.002ZM41.575 22.527h1.692l-.25.716.012-.009-.193.193.013-.012-.191.191.01-.009-.373.184.009-.007-.91.727.008-.005-.547.548.007-.007-.913.545.01-.007c-.185.122-.369.245-.551.368l.009-.008-.368.372.009-.007-.734.366.01-.009-.914.55.012-.01-.191.193.013-.01-2.535 1.27.014-.017c-.756.08-1.51.22-2.266.216-.617-.003-.933-.317-.444-.932l-.014.014.532-.041c2.751-.805 4.992-2.535 7.343-4.064.05-.034.05-.151.07-.229l-.008.007c.124-.061.247-.122.371-.185l-.009.007.553-.368-.011.009c.122-.125.245-.25.37-.374l-.013.01c.124-.064.25-.125.375-.188l-.012.01.005.002ZM30.964 82.163h-1.687c.305-3.154.193-6.288.088-9.464h1.684c-.217 3.115-.083 6.25-.085 9.464ZM94.06 19.269c-2.277.67-4.586 1.107-6.975.902-1.119-.098-2.234-.224-3.394-.536l2.09-1.023c.29-.03.58-.07.873-.083 2.212-.098 4.424-.215 6.638-.265.579-.013 1.162.187 1.743.29l-.266.366.017-.01-.377.189.016-.009-.375.19.012-.011h-.002Z"/><path fill="#898989" d="M43.017 23.244c.348.29-.038 1.192.857 1.026l.063.063-.198.352.009-.007c-.123.123-.246.245-.367.368l.008-.005-.369.182.004-.004-3.973 2.707.005-.006c-.303.182-.604.365-.907.545l.007-.003c-.123.06-.247.122-.37.185l.01-.007-.373.18c-.732.125-1.465.24-2.195.378-.515.097-.54-.193-.49-.565l-.014.016 2.535-1.268-.012.009c.063-.065.128-.128.19-.193l-.012.01.915-.55-.01.01.734-.367-.01.007.369-.371-.01.007.55-.368-.008.007.913-.545-.007.007.546-.548-.007.005.91-.727-.01.007.374-.184-.01.01.19-.192-.012.013.193-.194-.013.01h-.005Zm5.78 8.82-1.883.134c.191-.683.314-1.13.439-1.573l-.008.01c.184-.243.368-.486.55-.73l2.52-3.778.003-.004.859-.808.272.065c-.036.384.033.817-.122 1.147-.845 1.805-1.745 3.584-2.626 5.37l-.009.18.008-.01-.002-.002Z"/><path fill="#898989" d="m43.739 24.687.714-.32c.247.414.487.82.73 1.226l.01-.013-.191.191.01-.01c-.063.063-.126.128-.19.19l.01-.01c-.063.063-.126.128-.191.191l.01-.009-.373.184.01-.007-.19.19.007-.01-.547.55.008-.005c-.304.183-.608.363-.912.545l.01-.005-.55.366.008-.007-2.347 1.267c-.655-.123-1.31-.246-1.963-.367.012-.021.041-.047.036-.063-.011-.041-.036-.078-.054-.115l-.01.007c.123-.061.248-.123.37-.186l-.007.004c.303-.183.605-.365.908-.545l-.006.005c.212-.056.453-.063.627-.177a92.847 92.847 0 0 0 2.903-1.957c.187-.132.295-.38.442-.572l-.004.003.368-.182-.007.006.366-.369-.009.008.004-.004Zm41.934-6.18c-2.678.836-5.298.518-7.923-.371l1.712-.836c1.916.242 3.836.473 5.749.745.173.026.31.303.463.462h-.001ZM50.967 32.426c-.42.17-.827.424-1.263.489-.572.086-1.002-.146-.906-.852l-.007.01c.063.003.126.004.188.008.84-1.599 1.678-3.199 2.526-4.794.146-.276.335-.529.503-.792l.027 1.26.005-.015-.187.736.005-.016-.184 1.099.005-.017c-.06.246-.124.49-.185.735l.003-.013-.184.915.006-.014c-.062.245-.125.49-.186.736l.007-.017-.19.558.015-.016h.002Zm50.307-12.493c-1.313.276-2.623.579-3.944.824-3.935.73-7.904 1.025-11.9.801-1.416-.079-2.823-.346-4.234-.528l.02-.23c.404.053.814.084 1.214.161 3.876.756 7.76.57 11.629.024 2.365-.334 4.702-.861 7.053-1.301.054.083.108.166.164.249h-.002Zm-66.048 2.073c-3.067 1.308-6.295 2.019-9.575 2.49-1.47.21-2.968.236-4.455.346-.006-.074-.013-.148-.018-.224 1.956-.221 3.931-.337 5.862-.692 2.196-.406 4.354-1.03 6.528-1.554.55-.132 1.104-.245 1.656-.366h.002Zm56.13 2.843c-4.509-.292-9.06-.283-13.404-1.788-.419-.144-.812-.36-1.216-.545.29.053.593.065.868.161 3.056 1.06 6.24 1.387 9.434 1.642 1.431.114 2.868.155 4.302.23l.014.3h.002Zm-12.258-7.74c-.872.758-1.888.646-2.89.426-.68-.15-1.334-.4-2-.607l.016.013.367-.552-.013.01.386-.355L79.1 17.11h-.002Zm-5.247 5.949c.173.018.366-.006.518.061 3.496 1.564 7.231 2.156 10.982 2.678.141.02.275.092.41.14.002.06.004.118.004.177-2.588-.483-5.195-.877-7.752-1.485-1.43-.34-2.776-1.037-4.162-1.573v.002Zm-21.77-2.496.594-.635.702.338c-.025.453-.05.904-.077 1.357l.007-.008c-.061.062-.125.123-.186.186l.004-.003-.361.18-.004.004-.85.184.172-1.603h-.002Zm-9.23-5.968c.379.303.743.624 1.14.902.52.364 1.065.693 1.597 1.037-.056.053-.112.105-.168.16-.438-.221-.878-.44-1.317-.66-.673-.297-1.218-1.147-2.11-.485l-.163-.157.846-.812a.41.41 0 0 1 .175.011v.004Zm32.983 12.069c1.145.406 2.293.81 3.439 1.216l-.016.25-3.423-1.466Z"/><path fill="#898989" d="m39.777 29.19 2.347-1.266-2.176 1.445-.171-.178Zm12.303-8.628-.171 1.603.85-.184c-.035.626-.43.65-.904.543-.5-.663-.05-1.325.002-1.987l.221.024.002.001Zm1.296-.296-.702-.339a79.148 79.148 0 0 0-.1-.642l1.208-.244.155.15-.437.973a1.715 1.715 0 0 0-.126.104l.002-.002Zm5.694 1.002-.168-1.274c.121.069.24.139.361.207l-.193 1.067Zm35.7-2.348.265-.366.103.179-.368.187Zm-19.808-2.876c-.128.12-.256.237-.386.356l.179-.368.207.014v-.002ZM68.77 29.015a13.2 13.2 0 0 1-.144-.189l.391.168-.247.021Zm-30.974-.371c.02.038.045.076.054.115.003.017-.024.042-.036.064h-.39l.371-.181v.002Zm38.408.186-.215-.298c.069-.006.135-.01.204-.018l.01.316ZM60.03 25.867l.117.258c-.04-.087-.077-.173-.117-.258Zm-7.993 1.887-.027-1.26c.068 0 .137-.005.206-.006.449-.018.9-.04 1.35-.05.452-.012.907-.035 1.358-.01.631.036 1.292.258 1.885.136.64-.132 1.1.319 1.547.223.04.767.034 1.496.126 2.212a42.01 42.01 0 0 0 .556 3.363c.099.466.384.894.584 1.337l-1.097.264c-.04-.05-.195-.25-.26-.33.096-.37.244-.655.228-.93a128.688 128.688 0 0 0-.388-4.927c-.027-.265-.262-.657-.475-.713-.233-.063-.552.197-.743.276-.334-.12-.653-.306-.989-.342-.518-.055-1.059-.07-1.566.028-.235.046-.561.381-.585.612a129.186 129.186 0 0 0-.407 5.285c-.013.222.184.458.362.873l-1.048-.063c.695-2.187.673-4.424.806-6.716-.463-.021-.775-.036-1.075-.048l-.348.788v-.002Z"/><path fill="#898989" d="M57.047 33.373c-1.43-.052-.54.967-.689 1.505a84.56 84.56 0 0 0-.502-.072 1.029 1.029 0 0 0-.138-.11l.092-1.273.13.087c.19-.417.505-.82.548-1.252.144-1.449.193-2.907.413-4.361 0 1.241-.025 2.484.013 3.726.016.541.164 1.077.252 1.615-.04.045-.079.09-.12.133l.001.002Zm-2.107-.139v-4.267c.31 1.422.348 2.843.507 4.265-.17 0-.34 0-.507.002Z"/><path fill="#898989" d="M57.168 33.24c.132.046.261.095.406.147l-.264.455-.148.12-.113-.59a2.57 2.57 0 0 0 .12-.133h-.001Z"/><path fill="#898989" d="m57.309 33.84.234.679-.184.151c-.067-.236-.132-.474-.198-.71l.148-.12Zm-.68 2.82-.12-.723c.045-.01.09-.018.136-.025l.173.591-.19.16v-.003Zm-2.162-1.272-.13.4-.13-.033.128-.48.134.113h-.002Zm.442-1.844-.027.464c-.029 0-.06-.002-.088-.004v-.463l.115.003Zm-.426 1.164.17-.451.114.03-.105.578-.18-.155.001-.002Zm3.06-.19c.049.19.096.38.145.567a10.56 10.56 0 0 0-.156.132l-.173-.547.184-.151Z"/><path fill="#898989" d="M54.664 34.861c-.067.175-.132.35-.197.527a2.636 2.636 0 0 1-.132-.113l.15-.569c.06.05.121.103.18.155h-.001Zm1.745.71-.017-.327.087-.01.063.327c-.045.004-.09.008-.135.01h.002Zm.41 1.623-.189-.534.19-.157.15.567-.15.124Zm.869-2.109.137.514-.114.036-.178-.418c.052-.044.102-.087.155-.13v-.002Zm-3.172-1.633c-.058.02-.108.053-.159.049-.03-.002-.058-.058-.087-.09.051-.02.103-.053.154-.053.03 0 .06.058.092.092v.002Zm1.34 1.353-.1.276-.107-.027.07-.359a.89.89 0 0 1 .137.11Zm6.11-11.738a94.86 94.86 0 0 0-.462.53l-.927-.545c-.58 1.126-.103 1.774.968 1.75.047.4.01.774.145 1.07.348.765.774 1.496 1.17 2.24-.643-.81-1.27-1.639-1.95-2.418-.157-.18-.5-.2-.757-.294l.008.01-.194-2.713 1.436.288-.222-1.187c.911-.178 1.839-.362 2.766-.545l-.897.718-.11.105c-.422-.05-.846-.1-1.483-.173.222.509.364.835.505 1.162l.004.002Zm-9.75 3.42-.206.008c-.17.263-.358.516-.504.792-.848 1.595-1.685 3.195-2.526 4.794-.06-.061-.119-.125-.18-.186.88-1.788 1.78-3.565 2.625-5.37.155-.33.087-.76.123-1.147l-.273-.065-.858.808c.057-.301.117-.602.175-.904.4-.142.799-.287 1.263-.452l.36 1.72v.003Zm1.492-2.617c.184-.262.447-.5.53-.79.076-.264-.045-.582-.08-.878l.121-.119c.73-.01 1.097-.492 1.184-1.551l.787-.29.162.15c-.46.684-.17 1.29.191 1.89l-.196.19-.675-1.284c-.38.968-1.58 1.666-.74 2.898-.06.054-.117.11-.177.164a78.409 78.409 0 0 0-.41-.67c-.174.149-.342.29-.51.432l-.188-.144v.002Z"/><path fill="#898989" d="M57.363 20.414c.703.146.249.897.633 1.21-.334.634-.667 1.268-1.003 1.903l-.132.115-.196.067-.177-.155-.083-1.08.197-.19c.766-.127 1.005-.769.633-1.714l.128-.157v.001Z"/><path fill="#898989" d="M57.986 21.614c.516.336.783-.076 1.093-.362.12.305.242.608.363.913-.617-.094-.825.124-.634.748.121.395.146.82.107 1.235-.309-.845-.62-1.69-.928-2.534h-.002Zm-1.321 2.097c-.152.278-.341.543-.442.839-.109.323-.134.677-.193 1.016-.033.027-.063.054-.096.08-.738.091-.357-.688-.704-.903l.121-.135 1.137-1.05.177.155v-.002ZM53.3 21.623l.077-1.357c.04-.036.081-.07.125-.102l.886.189c-.215.453-.845.807-.341 1.429a5.194 5.194 0 0 0-.132.126c-.206-.094-.41-.19-.615-.283v-.002Zm8.733 8.562c-.482-.845-.962-1.691-1.444-2.535l.21-.177 1.421 2.544-.186.168h-.001Zm-8.683-5.633.154 1.284-.868-1.13.573-.337.141.183Zm9.868 3.911.516.558-.153.168-.363-.726Zm.54.718c.122.186.247.372.37.556l-.37-.555Z"/><path fill="#898989" d="m63.077 31.495.385.333-.217.183-.298-.392a3.03 3.03 0 0 0 .13-.124Zm-.857-1.478.218.34c-.057.05-.117.098-.175.147-.075-.107-.153-.213-.23-.32l.185-.167h.002Zm-4.754-5.532.173.288-.108.064-.16-.255c.032-.032.062-.065.093-.099l.002.002Zm-3.308-2.28-.243-.298.132-.125c.077.101.155.202.23.305a7.6 7.6 0 0 1-.12.119l.002-.002Zm4.383 2.482.038-.25c-.016.08-.03.16-.047.24l.01.01Zm4.053 6.374a36.588 36.588 0 0 1-.22-.337l.165-.133.219.33-.163.142-.001-.002Zm-6.564-5.497.15.252c-.035.022-.07.042-.103.064-.047-.08-.096-.16-.143-.237.032-.025.063-.052.096-.08Z"/><path fill="#898989" d="m62.756 30.92.218.34-.148.126c-.077-.108-.155-.214-.232-.323.054-.046.108-.093.162-.142Zm-7.704-6.368-.239-.3c.058-.054.118-.108.175-.164l.233.312-.17.15v.002Zm2.188-.2-.202-.343.134-.114c.056.119.112.238.166.357l-.098.1Zm3.35 3.298-.149-.372.208-.197.15.394c-.07.06-.14.117-.21.176v-.001Z"/><path fill="#898989" d="M57.038 24.007c-.06-.121-.117-.244-.177-.365a4.72 4.72 0 0 1 .132-.115l.179.368-.134.114v-.002Zm-6.263-.038c.062-.125.125-.25.186-.376l-.186.376Zm9.482 2.436c.049.122.1.243.148.366-.029.025-.06.049-.088.074-.085-.094-.168-.188-.253-.28l.191-.159.002-.001Zm-1.205.507c-.085.027-.159.063-.235.068-.025 0-.056-.077-.085-.119.074-.036.145-.08.222-.1.017-.003.054.082.1.15h-.002Zm-7.38-4.206Zm8.482 2.694-.036.052c.014-.015.03-.027.045-.042l-.009-.01Zm3.426 3.789.154-.168c.01.058.023.113.034.171-.063 0-.124-.002-.188-.003Zm-5.048-4.511-.029.029.036-.02-.007-.01Zm-3.302.063c-.06-.063-.119-.126-.178-.191l.17-.15c.042.069.086.135.13.204l-.122.135v.002Zm7.144 5.983-.11-.22.174-.146c.035.077.067.155.101.233-.056.045-.11.09-.166.133Zm-5.002-6.14-.13-.233.098-.099c.043.078.084.155.128.233l-.094.1h-.002Zm-4.163-.215.179-.168.155.183-.191.168c-.047-.062-.094-.121-.14-.183h-.003Zm9.738 7.25-.12-.235.147-.126.103.236a2.673 2.673 0 0 1-.128.125h-.002Z"/><path fill="#898989" d="m53.386 24.2.18-.179c.053.061.103.121.156.18l-.18.181-.156-.182Zm.509-.186c-.058.063-.116.124-.171.188l-.156-.18.141-.152c.061.048.125.095.186.144Zm-3.3.132.188-.188c-.064.063-.127.125-.188.188Zm2.524-2.344c.062-.061.125-.123.186-.186l-.186.186Zm-1.627 1.084c.063-.063.128-.126.19-.191-.062.063-.127.126-.19.191Zm8.296-.371c.063.063.126.128.191.19-.063-.062-.126-.127-.191-.19Zm-43.821-3.412c2.656.685 5.355.909 8.088.754.856-.049 1.706-.166 2.559-.191-3.298.654-6.591.77-9.864-.172-.273-.08-.515-.269-.769-.406l-.014.015ZM35.93 17.04c.794-.379 1.548-.665 2.512-.66 1.072.005 2.147-.529 3.222-.828.05.054.096.11.145.164.207.171.398.456.626.489.489.07.996.01 1.494.004-.303.243-.606.487-.911.73-.262-.171-.511-.458-.787-.489-.451-.047-.92.074-1.38.125a2.47 2.47 0 0 1 .016-.173l.29-.078c-.01-.036-.023-.072-.034-.108l-.321.115-4.713.911-.159-.202Zm-24.298 3.38-.536-.25c.18.012.363.02.543.031l-.005.219h-.002Zm14.032-1.45-.267-.13c.012-.037.025-.071.038-.107l.344.103c-.038.045-.076.09-.115.133Z"/><path fill="#898989" d="m15.981 19.088-.207-.076.056-.054.139.145.014-.015h-.002ZM37 15.954c.023.047.048.094.065.143.002.005-.044.027-.067.041-.023-.045-.049-.09-.065-.137-.002-.007.041-.029.067-.045v-.002Zm-4.25 1.512a4.789 4.789 0 0 0-.028-.004c-.107-.084-.044-.034.02.015l.009-.01Zm2.83-.227.352-.199.158.202-.351.179c-.053-.061-.107-.12-.16-.182Zm6.086-1.69c.056-.051.11-.104.166-.156l.162.157-.184.164c-.049-.054-.096-.11-.144-.164Z"/><path fill="#898989" d="m35.363 17.358.216-.12.16.183-.24.105-.136-.17v.002Zm46.154 2.89-.256.16c-.016-.046-.06-.124-.047-.133.06-.046.135-.077.204-.113.032.029.066.058.099.085v.001Zm-43.354-.436c-1.201.207-2.398.478-3.608.599-.836.083-1.691-.044-2.537-.076 0-.08-.002-.159-.004-.236l.413-.199-3.356-.411c2.386-.796 4.76-1.431 7.237-.598l-1.272.466.063.216a761.89 761.89 0 0 0 2.021-.584l1.388.651.012-.009-.375.192.018-.011Z"/><path fill="#898989" d="m35.498 17.526.24-.105.352-.179c1.572-.303 3.143-.608 4.713-.91l.065.071a1.427 1.427 0 0 0-.016.174l.01-.01-.189.192.011-.01-.372.187.01-.008-.369.369.008-.008c-1.671.843-3.333 1.738-5.415.98l.954-.741-.002-.002Zm3.01 2.114 1-.063c.202.467.074.762-.479.955-1.504.526-3.013.99-4.635.747-.297-.046-.58-.18-.826-.258l4.597-1.21-.018.012.376-.192-.013.01h-.002Zm2.89.722h1.347c-2.227 1.178-4.253 1.996-6.615 1.27 1.572-.353 3.143-.703 4.715-1.063.194-.045.377-.144.566-.218l-.01.011h-.002Zm3.791.171c-.12.302-.243.605-.364.906l.002-.002c-.892.361-1.718.995-2.775.657.164-1.308 1.864-2.45 3.116-2.084.09.027.13.23.193.35l.009-.009-.19.188.008-.007.001.001Zm-3.433-1.793.91-.547-.01.01c.556-.037 1.11-.071 1.723-.11-.297.643-.543 1.18-.875 1.897h-2.11l.012.013-.007-.725.18-.365-.005.006.187-.188-.007.009h.002Zm1.265-1.8.91-.732-.01.01.188-.19-.004.007 1.317.659c.072.224.146.446.233.713-.917.469-1.848.523-2.813.243l.007.01.184-.728-.009.01-.003-.003Zm3.063 5.046c.081.095.224.186.237.29.106.9.099.902.94 1.05-.668 1.26-1.23 1.626-2.398 1.41.233-.753.462-1.485.69-2.218l-.006.006.548-.547-.009.01-.002-.001Zm2.894 2.152c-.532.415-1.055.843-1.602 1.238-.157.114-.38.137-.7.244.013-1.321.97-1.978 1.518-2.873l.954 1.04.01-.011-.187.373.007-.009v-.002Z"/><path fill="#898989" d="M40.852 16.575c.462-.05.93-.172 1.38-.125.276.03.525.318.787.49l.009-.012-.913.912.012-.011c-.508.058-1.026.198-1.52.137-.24-.03-.434-.44-.648-.677l-.008.008.369-.369-.01.008.372-.186-.01.009.189-.191-.01.009v-.002Zm4.698 5.943c-.198.208-.382.433-.6.62-.356.302-.733.58-1.101.869l-.247-.174.146-1.315-.004.006c.361-.361.722-.724 1.085-1.085l-.002.002h1.436c-.069.211-.123.379-.179.545l.01-.01-.55.546.006-.006v.002Zm-4.862-3.607-3.017.349c.895-1.411 1.864-1.538 3.363-.7l.007-.008-.19.19.012-.011-.191.193.016-.01v-.003Zm8.287 7.393c-.792.005-.628-.54-.509-.975.112-.413.336-.795.51-1.192l-.007.009c.064-.125.125-.25.188-.374l-.01.011 1.004.859-.278.942.004-.004-.547.547.008-.006-.369.184.006-.003v.002Zm-2.779-6.896-1.992.26a44.104 44.104 0 0 1-.2-.295l1.563-1.737.627 1.772h.002Zm1.693 2.026.723.8-1.797.786c-.379-.879 0-1.411.363-1.945l-.013.012.73.356-.006-.007v-.002Zm-2.526-1.072 1.102-.947.7 1.67.013-.012c-.473.022-.958.108-1.417.036-.214-.034-.382-.375-.572-.577l-.007.007.19-.188-.01.01v.001Z"/><path fill="#898989" d="M41.41 20.351c-.515-.05-1.027-.103-1.541-.153l-.12-.253.937-1.034-.016.011.191-.193-.01.011.189-.19-.008.008c.165.364.686-.686.722.182l.007-.009-.187.188.005-.006-.18.363c-.516.346-.516.451.007.729l-.011-.013c0 .125.002.25.004.372l.01-.013Zm1.255-2.158h-.644c.034-.115.07-.24.108-.364l-.012.01.73-.183-.007-.01-.184.553.01-.01v.004Zm1.083 4.325-.285-.049.041-.088c.08.047.159.096.24.143l.004-.006Zm.126 1.752c.06-.007.121-.014.18-.023-.04.029-.079.056-.117.085l-.063-.064v.002Zm-2.192-2.926h.222l-.094.139-.126-.14h-.002Zm29.116-.798c-.346-.397-.691-.794-1.038-1.19.05-.048.098-.093.145-.14l8.076 2.046c.034.06.067.12.101.177-.345.12-.695.354-1.03.336-1.191-.067-2.375-.22-3.562-.341l.018.009-2.723-.91.013.011v.002Zm12.61-1.035c-3.015.461-5.992.108-8.931-.845 1.151-.123 2.198-.622 3.453-.24 1.772.54 3.649.74 5.478 1.085Zm-9.2-2.582 1.936.99c-1.866.47-5.2-.115-6.605-1.17l-.011.008c.222-.067.449-.204.665-.188 1.347.103 2.689.242 4.031.369l-.016-.013v.003Zm-8.47 5.948c.59.542 1.224 1.06 1.05 2.198l-2.13-.758.01.011c-.062-.065-.127-.128-.19-.193l.012.01-.377-.187.013.01-.193-.192.016.01-.3-.533 1.92-.549-.013-.01c.064.062.127.127.19.19l-.01-.009.003.002Z"/><path fill="#898989" d="m65.57 22.706-.72-.924c1.05.083 1.886.119 2.713.233.22.03.494.258.586.465.135.298.128.66.18.996-.31-.01-.634.035-.929-.043-.564-.148-1.111-.366-1.665-.556l.01.01a11.376 11.376 0 0 0-.189-.192l.013.01h.002Zm7.92-1.27 1.14.434.006.199c-.807 0-1.619.056-2.418-.018-.605-.056-1.193-.282-1.786-.431l.012.01-1.095-.738.01.011c.48-.119.96-.238 1.443-.355l-.013-.011 2.723.91-.019-.01-.003-.002Zm-4.143-.546.383.944c-1.26.395-2.974-.166-3.333-1.02.994-.448 1.995-.61 2.96.087l-.01-.01Zm1.023-1.982c.411-.266.794-.713 1.184-.72.794-.015 1.593.21 2.389.335-.1.199-.148.507-.305.576-1.137.503-2.238.34-3.268-.191Z"/><path fill="#898989" d="M69.829 20.277c-1.476.224-2.26-.16-2.573-1.266 2.11-.406 2.347-.29 2.573 1.266Zm-1.736-2.616c.314-.188.66-.572.935-.525.747.124 1.463.433 2.284.696-.801.803-2.088.821-2.869.175l.01.011-.373-.37.013.013Zm1.445-.911c-.617.08-1.234.215-1.85.216-.288 0-.575-.258-.862-.398l-.009.01.193-.193-.012.013c.065-.065.13-.128.193-.193l-.013.013c.065-.064.128-.129.193-.192l-.01.013c.176-.094.366-.283.53-.265a8.499 8.499 0 0 1 1.586.339c.078.025.036.422.049.646l.01-.01h.002Z"/><path fill="#898989" d="M68.445 18.01c.002.804-.66.629-1.099.687-.328.043-.682-.107-1.095-.183l.308-1.326 1.534.475-.013-.013.372.37-.009-.01h.002Zm-2.706.728c.957.069 1.335.486 1.385 1.615H65.74l.01.009-.191-.193.014.01-.184-1.09-.009.008.19-.19-.01.01.19-.19-.01.01v.001Zm-2.685 3.233.896-.718-.016.011h.552l-.012-.012c.066.164.19.33.187.494-.005.373-.072.745-.115 1.119-.383-.165-.776-.307-1.144-.5-.146-.076-.235-.26-.35-.395l.002.001Zm-1.088 1.096-.506-1.162c.637.074 1.061.122 1.484.173l.398 1.16H62.13l.012.013c-.065-.065-.128-.13-.193-.193l.015.012.002-.003Zm10.984 2.152c.967.484 1.934.967 2.9 1.453l-2.9-1.453Zm2.28 2.963-1.397-.772a5.41 5.41 0 0 0 .099-.098l1.4.758a5.94 5.94 0 0 0-.101.11v.002Zm-1.621-.911a85.142 85.142 0 0 1-.675-.403l.087-.083c.223.136.449.271.673.408-.03.025-.056.052-.085.078Zm-8.246-1.348c.006-.236.011-.473.018-.707l.37.734-.272.108a.627.627 0 0 0-.114-.135h-.002Zm6.685-1.243.738.368c-.245-.123-.49-.246-.738-.368Zm.655 2.057-.359-.166.07-.156.383.233c-.03.03-.063.058-.094.089Zm-2.6-1.906.21.222-.327-.103a7.1 7.1 0 0 0 .115-.119h.002Zm1.404-.512Zm4.08 4.052a33.602 33.602 0 0 0-.354-.187l.1-.11.36.187a3.718 3.718 0 0 0-.107.11Z"/><path fill="#898989" d="M72.795 26.648c.074.047.148.092.224.137l-.087.083c-.075-.045-.153-.088-.23-.133a4.43 4.43 0 0 0 .091-.088l.002.001Zm-6.145.204-.192-.19.192.19Zm-.18-.18a11.586 11.586 0 0 1-.192-.192c.063.064.128.127.191.192Zm.721.72a11.415 11.415 0 0 0-.191-.19l.191.19Zm6.501-.199c.08.042.159.081.24.121a2.289 2.289 0 0 1-.1.096 14.752 14.752 0 0 0-.225-.141c.027-.025.056-.05.083-.078l.002.002Zm2 1.068c.039.053.079.103.118.155l-.224-.045c.033-.037.07-.074.105-.11Zm-2.92-3.224.191.193-.191-.193Zm-2.862-.373c.065.055.13.111.193.167-.038.04-.075.08-.115.12-.065-.06-.128-.122-.192-.183a.901.901 0 0 0 .114-.105Z"/><path fill="#898989" d="M69.794 24.768c-.023-.065-.046-.13-.072-.193l.186.088a.883.883 0 0 1-.114.105Zm-.351-.55c.027.065.054.131.079.197a5.041 5.041 0 0 0-.188-.08.598.598 0 0 0 .107-.117h.002Zm-.363-.357c.065.063.132.126.195.19a.595.595 0 0 0-.118.106l-.18-.185a.516.516 0 0 0 .103-.113v.002Zm1.707-.085c.065.065.128.13.193.193-.065-.065-.128-.13-.193-.193Z"/><path fill="#898989" d="M68.893 23.69c.063.059.124.116.187.172a.551.551 0 0 1-.103.112l-.173-.184c.027-.034.058-.067.089-.1Zm1.353-.275c.065.065.128.13.193.193-.065-.065-.128-.13-.193-.193Zm-.54-.541.193.193c-.064-.065-.128-.13-.193-.193Zm-.37 1.461-.178-.179a.589.589 0 0 1 .117-.104l.168.168a.585.585 0 0 1-.106.115Zm32.637 52.686-.062.106c-.018-.02-.052-.043-.048-.057.009-.04.036-.074.054-.112l.056.061v.002ZM39.961 23.597c-.022.078-.018.197-.07.23-2.352 1.53-4.593 3.26-7.344 4.063l-.2-.174c2.349-1.297 4.696-2.596 7.049-3.888.177-.097.375-.155.565-.233v.002ZM26.419 25.87c2.537-.793 5.072-1.587 7.609-2.376.168-.052.352-.052.527-.075-2.59 1.257-5.288 2.19-8.13 2.683-.002-.076-.004-.154-.008-.23l.002-.002Zm10.676-2.246-6.887 3.185v-.25c2.265-1.008 4.53-2.016 6.794-3.027l.092.092h.001Zm-2.554-.197c.485-.243.972-.487 1.457-.732-.485.244-.972.487-1.457.732Zm3.789-.55c-.25.184-.497.37-.746.554l-.128-.216c.294-.109.588-.219.883-.327l-.011-.009.002-.002Z"/><path fill="#898989" d="M26.42 25.87c.001.078.003.154.006.23l-.903.028c.299-.086.599-.17.898-.258h-.002Zm14.803-3.175c-.122.125-.245.249-.37.373l.37-.373Zm-8.877 5.023.2.173c-.176.015-.353.027-.532.042l.332-.215Zm7.977-4.3Zm-1.804-.714c.065-.045.13-.092.197-.137.014.025.028.05.041.078-.083.016-.166.032-.249.05l.01.01v-.001Zm-8.309 3.854v.249l-.312.081c-.04-.056-.08-.11-.12-.168l.432-.164v.002Zm6.793-3.026.204-.049-.114.141-.092-.092h.002Z"/><path fill="#898989" d="m38.34 22.886.179-.182-.011-.01-.179.181.01.01v.001Zm31.185-6.127c-.012-.226.028-.623-.048-.646a8.468 8.468 0 0 0-1.586-.34c-.164-.02-.354.17-.53.266.228-.785.864-.688 1.365-.49.86.34 1.673.275 2.514.033.036.04.074.076.115.112l-1.135.496c1.417.695 2.896.383 4.368.2-.122.185-.243.369-.366.553-1.344-.127-2.686-.265-4.03-.368-.217-.017-.444.12-.666.187v-.003Zm-4.137 2.331.184 1.092-.624.281a5.968 5.968 0 0 1-.15-.148l.592-1.225h-.002Zm-.902 2.176h-.552l.482-.39.07.39Z"/><path fill="#898989" d="M71.242 15.58c.114-.084.225-.169.339-.254l.092.092-.316.274a1.335 1.335 0 0 1-.115-.111Zm-6.295 4.883-.255.226-.097-.09c.067-.095.133-.19.202-.284l.15.148Zm2.246-4.258c-.065.065-.13.128-.193.193.065-.065.13-.128.193-.193Zm-6.703-2.486c-.713.128-1.425.256-2.25.406l-.666-.617c-.586.878-.7.875-1.194.03l-1.186.164c.809-.75 1.628-.848 2.501-.721.78.111 1.559.238 2.335.38.197.036.379.157.568.239-.036.04-.072.079-.106.12l-.002-.001Zm-5.438 3.51c.339-.916-.617-.862-.966-1.287.074-.239.127-.498.237-.735.21-.458.467-.662.929-.2.327.326.745.561 1.122.837l-.027.027-.873-.063v1.49h-.36a1.175 1.175 0 0 1-.06-.072l-.002.004Zm1.965 2.14.193.896a5.42 5.42 0 0 1-.148.117l-.652.012-.162-.151c.375-.411.384-.835.047-1.274.034-.027.069-.054.103-.083l.469.347.15.135v.002Zm-.733-1.621-.101.808.013-.01-.558.194c0-.424.004-.85.006-1.274l.514.157c.04.043.083.085.128.125h-.002Z"/><path fill="#898989" d="M56.584 15.997c.851.746-.069 1.19-.3 1.749a1.193 1.193 0 0 1-.128-.125l.337-1.546c.031-.025.062-.052.09-.08v.002Zm-2.456 2.654c.171-.319.34-.638.512-.957l.148.178-.218.87c-.114.007-.226.012-.34.02l-.1-.11h-.002Z"/><path fill="#898989" d="m53.783 19.041.347-.39c.032.037.066.073.1.11-.097.143-.192.288-.29.43l-.155-.15h-.002Zm2.4-.485c.072.11.142.222.215.332l-.103.081-.101-.426-.013.011.002.002Zm-1.543-.863.247-.254.152.13-.253.303a6.064 6.064 0 0 0-.148-.178h.002Zm5.956-4.094c.06.06.12.12.177.18l-.283-.059c.034-.041.07-.08.106-.12Zm-3.727 5.635.194-.166c.038.04.078.078.121.112l-.166.19c-.048-.046-.099-.09-.148-.134l-.001-.002Z"/><path fill="#898989" d="M57.064 19.068c.06-.034.117-.068.176-.104l-.057.214a1.139 1.139 0 0 1-.12-.11Zm-.691-3.222.21.151c-.028.027-.059.053-.09.08-.048-.069-.099-.136-.148-.204l.028-.027Zm.837 4.419.151.151a5.883 5.883 0 0 1-.128.157c-.057-.063-.115-.126-.171-.19.049-.04.097-.079.148-.117v-.001Zm-2.322-2.826c.054-.07.11-.139.164-.21l.061.071-.074.267-.151-.13v.002Zm.139-3.63-.022-.04.049.004-.027.036Zm2.204 3.2-.027.053c-.023-.02-.048-.038-.072-.058l.053-.052.046.056v.002ZM46.68 28.517l-.778.842-.188-.177.809-.846.157.18Zm1.216 1.389Z"/><path fill="#898989" d="M42.115 27.93c.184-.123.366-.246.55-.367-.184.123-.366.245-.55.366Zm2.078.266c-.112.035-.222.067-.334.101l.204-.23.13.13Zm2.33.14.416-.455c.053.06.105.12.157.182-.138.151-.277.301-.416.45a6.977 6.977 0 0 1-.157-.18v.002Zm-.809.846.188.176-.278.089.092-.265h-.002Zm-.866-1.595-.287.276a.647.647 0 0 0-.117-.136l.289-.272a.728.728 0 0 0 .115.132Zm.724-.719-.182.183a1.858 1.858 0 0 0-.12-.12l.184-.182c.038.044.076.083.118.12Z"/><path fill="#898989" d="m45.752 26.688-.18.18a1.463 1.463 0 0 1-.117-.119l.18-.18a.972.972 0 0 0 .12.12l-.003-.001Z"/><path fill="#898989" d="m45.633 26.569.18-.18c.037.043.076.082.118.119l-.18.18a1.51 1.51 0 0 1-.12-.12h.002Zm-.243.482c-.06.061-.12.12-.179.182l-.135-.123.194-.178c.042.037.082.077.12.119Z"/><path fill="#898989" d="m45.209 27.231-.18.18-.136-.119.182-.182.136.121h-.002Z"/><path fill="#898989" d="m44.733 27.455.162-.163.136.12c-.062.057-.121.117-.183.174a.73.73 0 0 1-.115-.131Zm1.377-1.132-.177.184a1.463 1.463 0 0 1-.117-.119c.06-.06.122-.119.185-.177.035.04.07.078.109.114v-.002Z"/><path fill="#898989" d="m46 26.212.189-.174.092.101-.171.186a.921.921 0 0 1-.109-.113H46Zm-1.749 1.683c.063-.056.128-.112.191-.17.045.04.083.085.118.136l-.183.175-.126-.141Zm-.188.17c.064-.056.127-.114.188-.17.042.047.083.094.126.14l-.184.16-.13-.13Zm.578-1.935c.063-.063.126-.128.191-.19-.063.062-.126.127-.191.19Zm.18-.18c.063-.063.127-.128.192-.191-.064.063-.127.128-.192.191Zm35.812.767c-2.39-.334-4.628-1.119-6.804-2.265l6.898 2.08c-.03.062-.063.123-.094.185Zm-7.966-3.008 1.023.464-.108.218c-.337-.193-.677-.386-1.014-.58.034-.032.067-.066.1-.1v-.002Zm-1.185-.617-.392-.175.083-.126c.116.088.231.177.348.263l-.04.036v.002Zm-.982-.722c.047.022.108.033.135.067.015.02-.028.081-.046.124-.047-.021-.103-.036-.134-.072-.013-.016.027-.077.045-.119Zm1.23.836.34.204-.045.045-.347-.199.053-.05Z"/><path fill="#898989" d="m72.568 23.808-.118-.15.217.051a5.205 5.205 0 0 1-.1.101v-.002Zm-.498-.398.148.086-.192-.041.044-.045Zm-.392-.154a8.379 8.379 0 0 0-.197-.164l.04-.036.21.15-.053.05ZM65.63 28.23l1.009 1.167c-.076.069-.154.136-.23.204-.335-.395-.67-.79-1.008-1.185l.229-.188v.002Zm-.153-2.17-1.384.162c.066-.089.135-.177.202-.266l1.066-.032c.045.04.083.083.114.135h.002Zm-.076 2.355-.714-.912c.08-.063.159-.128.236-.19l.707.914-.229.186v.002Zm-.714-.912c-.152-.209-.302-.42-.453-.63l.197-.15.492.59c-.08.062-.159.127-.236.19Zm-1.373-1.122.469.197-.062.171a66.648 66.648 0 0 0-.564-.198l.157-.17Zm.359-.707c.103.081.206.16.306.242-.028.04-.059.08-.088.117l-.317-.264a.823.823 0 0 0 .099-.095Zm-.516.876-.231-.143.162-.15c.076.041.152.083.227.122l-.157.17-.001.002Z"/><path fill="#898989" d="m62.926 26.406-.197-.178.157-.132.202.16-.162.15Zm1.37-.45-.203.265c.069-.089.135-.177.202-.266Z"/><path fill="#898989" d="m62.7 25.923.186.175-.157.132-.177-.18c.05-.042.1-.086.15-.127H62.7Zm-.15.127-.18-.183.15-.125.18.18c-.05.042-.1.086-.15.127Zm1.023-.28-.097-.156c.065.02.132.042.197.06a.808.808 0 0 1-.1.094v.002Zm-1.237-.206.182.178-.15.125-.168-.191a.8.8 0 0 0 .134-.112h.002Z"/><path fill="#898989" d="M62.202 25.676c-.011-.081-.02-.163-.03-.244.053.044.11.087.163.13a.722.722 0 0 1-.133.112v.002Zm-.25-2.622c.064.065.127.13.192.193-.065-.065-.128-.13-.193-.193Zm-11.671-1.89c.18-.102.359-.201.547-.306.027.085.068.163.052.179-.14.13-.29.247-.437.368l-.162-.242ZM39.96 25.58Zm-2.522 1.62a19.24 19.24 0 0 1-.191.193c.063-.065.128-.128.19-.193Zm5.586-1.979c-.146.193-.254.44-.442.572a95.022 95.022 0 0 1-2.903 1.958c-.173.113-.417.12-.626.176a5385.43 5385.43 0 0 0 3.973-2.708l-.002.002Z"/><path fill="#898989" d="m39.058 27.924-.908.545c.303-.182.605-.365.908-.545Zm4.69-3.246c-.123.123-.246.245-.367.368l.366-.368Zm-.361.364Zm-5.231 3.423Zm10.642 3.43c.06.061.119.125.18.186l-.187-.007.009-.18-.002.001ZM41.81 15.716l.184-.164c.893-.664 1.438.187 2.11.485l.004-.007c-.063.063-.126.126-.187.19l.01-.01c-.5.008-1.006.067-1.493-.003-.228-.033-.419-.318-.627-.49l-.001-.001Zm12.128 3.475c.098-.142.193-.287.29-.43.114-.007.226-.012.34-.02l-.01-.012.194.193-.013-.012c.065.065.13.128.193.193l-.012-.013-.179 1.095.011-.009-.373.186.009-.009-.886-.19c.146-.324.292-.647.436-.972Zm1.415 5.415-.13-.204c-.078-.105-.155-.21-.233-.312-.84-1.233.36-1.93.74-2.898l.675 1.283.083 1.08-1.137 1.05h.002Z"/><path fill="#898989" d="M54.277 22.085c-.077-.1-.155-.202-.23-.305-.504-.622.126-.976.34-1.429l-.009.01c.125-.062.25-.123.374-.187l-.01.01c.183 0 .365 0 .55-.002l-.01-.011c.062.124.125.247.186.372l-.007-.008c-.087 1.06-.455 1.54-1.184 1.552v-.002Zm2.786-1.703c.058.063.116.126.172.19.371.945.133 1.587-.634 1.713-.36-.599-.653-1.207-.191-1.889l.651-.012.002-.002Z"/><path fill="#898989" d="M56.195 18.545c.035.14.067.283.102.426.337.438.326.862-.05 1.274-.26.097-.524.193-.786.29l.007.007c-.061-.124-.124-.247-.186-.371l.01.01c.06-.362.12-.727.182-1.09l-.011.013c.063-.124.124-.25.188-.375l-.011.013.557-.195-.002-.002Zm-15.392-2.214.321-.115c.01.036.023.072.034.108l-.29.077a2.606 2.606 0 0 1-.065-.072v.002Zm-.12.419c-.124.061-.248.124-.37.186l.37-.186Zm.722 3.253c-.523-.276-.523-.383-.007-.725l.007.725Zm1.44-2.347-.73.184c.304-.303.607-.608.913-.912l-.185.728h.002Zm1.074-1.438.187-.19c-.063.063-.126.126-.187.19Zm12.426-.345c.049.069.1.135.148.204l-.337 1.546-.515-.157.011.013-.195-.191.013.012v-1.49l.873.063h.002Z"/><path fill="#898989" d="m55.039 17.569.074-.267h.359l-.013-.013.195.192-.01-.013c0 .424-.004.85-.006 1.274l.01-.013-.187.375.01-.012c-.183 0-.367 0-.553-.002l.013.013-.193-.193.012.012-.193-.193.011.013.218-.87c.085-.1.168-.202.253-.303Z"/><path fill="#898989" d="M54.92 19.088c.184 0 .368 0 .554.002-.062.363-.121.727-.182 1.09-.184 0-.367 0-.55.002l.178-1.096v.002Zm-.168 1.086Zm-.015-1.266.194.193-.194-.193Zm-.18-.179c.065.065.13.128.193.193-.065-.065-.13-.128-.193-.193Zm1.095-1.25-.195-.191.195.19Z"/></svg>